<svg width="114" height="125" viewBox="0 0 114 125" fill="none" xmlns="http://www.w3.org/2000/svg">
<path d="M82.8441 60.3975C83.6335 61.6801 83.9516 60.6182 83.9532 62.0997V95.8926C83.9516 97.3741 83.5352 98.8291 82.7458 100.112C81.9564 101.394 80.8218 102.46 79.4558 103.2L47.974 120.097C46.6066 120.838 45.0555 121.229 43.4766 121.229C41.8977 121.229 40.3466 120.838 38.9792 120.097L7.4974 103.2C6.13137 102.46 4.99676 101.394 4.20738 100.112C3.418 98.8291 3.00162 97.3741 3 95.8926V62.0997C3.00162 60.6182 3.418 59.1631 4.20738 57.8805C4.99676 56.5978 6.13137 55.5327 7.4974 54.792L28.8994 43.3054L38.9792 37.8955C40.3466 37.154 41.8977 36.7637 43.4766 36.7637C45.0555 36.7637 45.7889 37.154 47.1563 37.8955" stroke="#00875F" stroke-width="6" stroke-linecap="round" stroke-linejoin="round"/>
<path d="M4.21423 57.405L43.4765 78.7367L60.7429 68.2665" stroke="#00875F" stroke-width="6" stroke-linecap="round" stroke-linejoin="round"/>
<path d="M43.7597 119.642L43.4767 78.6945" stroke="#00875F" stroke-width="6" stroke-linecap="round" stroke-linejoin="round"/>
<path d="M21.2568 67.451V78.6319C21.2568 79.0239 21.4859 79.3798 21.8428 79.5421L27.9098 82.3021C28.5719 82.6033 29.3239 82.1192 29.3239 81.3918V72.1015C29.3239 71.7465 29.512 71.4182 29.8183 71.2387L54.3741 56.8496" stroke="#00875F" stroke-width="4"/>
<path d="M21.6815 65.82L50.5529 49.5102" stroke="#00875F" stroke-width="4"/>
<path d="M64.1394 100.886L76.0276 94.3622" stroke="#00875F" stroke-width="4" stroke-linecap="round"/>
<path d="M68.3854 92.3868L74.0978 89.4693" stroke="#00875F" stroke-width="4" stroke-linecap="round"/>
<g clip-path="url(#clip0_224_388)">
<path d="M97.0412 43.7494C90.8128 61.813 61.2907 69.6056 61.2907 69.6056C61.2907 69.6056 42.4459 46.4321 48.6743 28.3685C50.7982 22.209 55.3829 17.112 61.4199 14.1987C67.457 11.2855 74.4518 10.7947 80.8657 12.8344C87.2795 14.874 92.587 19.277 95.6205 25.0747C98.654 30.8724 99.165 37.5899 97.0412 43.7494Z" stroke="#00875F" stroke-width="6" stroke-linecap="round" stroke-linejoin="round"/>
<path d="M70.1885 43.8005C74.6405 45.2163 79.4447 42.898 80.9189 38.6225C82.3931 34.3469 79.9791 29.7332 75.5271 28.3174C71.075 26.9017 66.2709 29.22 64.7966 33.4955C63.3224 37.771 65.7364 42.3847 70.1885 43.8005Z" stroke="#00875F" stroke-width="5" stroke-linecap="round" stroke-linejoin="round"/>
</g>
<defs>
<clipPath id="clip0_224_388">
<rect width="67.6714" height="65.5105" fill="white" transform="matrix(0.952975 0.30305 -0.32597 0.94538 49.5109 0)"/>
</clipPath>
</defs>
</svg>
