<svg width="59" height="68" viewBox="0 0 59 68" fill="none" xmlns="http://www.w3.org/2000/svg">
<g clip-path="url(#clip0_302_356)">
<path d="M50.2496 23.5058C47.0359 33.211 31.8031 37.3979 31.8031 37.3979C31.8031 37.3979 22.0795 24.9472 25.2932 15.2419C26.3891 11.9325 28.7547 9.19395 31.8697 7.62872C34.9847 6.0635 38.5939 5.79981 41.9033 6.89567C45.2128 7.99153 47.9513 10.3572 49.5165 13.4722C51.0818 16.5872 51.3454 20.1964 50.2496 23.5058Z" stroke="#00875F" stroke-width="3" stroke-linecap="round" stroke-linejoin="round"/>
<path d="M36.3941 23.5333C38.6913 24.2939 41.1701 23.0483 41.9308 20.7512C42.6915 18.454 41.4459 15.9751 39.1487 15.2145C36.8515 14.4538 34.3727 15.6994 33.612 17.9966C32.8513 20.2937 34.0969 22.7726 36.3941 23.5333Z" stroke="#00875F" stroke-width="3" stroke-linecap="round" stroke-linejoin="round"/>
</g>
<path d="M43.1861 31.9849C43.5934 32.674 43.7695 32.9715 43.7703 33.7674V51.9238C43.7695 52.7198 43.5546 53.5015 43.1473 54.1907C42.74 54.8798 42.1546 55.4521 41.4497 55.8501L25.2057 64.9282C24.5002 65.3266 23.6998 65.5364 22.8851 65.5364C22.0705 65.5364 21.2701 65.3266 20.5646 64.9282L4.32057 55.8501C3.61573 55.4521 3.03029 54.8798 2.62298 54.1907C2.21568 53.5015 2.00083 52.7198 2 51.9238V33.7674C2.00083 32.9715 2.21568 32.1897 2.62298 31.5005C3.03029 30.8114 3.61573 30.2391 4.32057 29.8411L15.3636 23.6696L20.5646 20.763C21.2701 20.3646 22.0705 20.1548 22.8851 20.1548C23.6998 20.1548 24.0783 20.3646 24.7838 20.763" stroke="#00875F" stroke-width="3" stroke-linecap="round" stroke-linejoin="round"/>
<path d="M2.62653 31.407L22.8851 42.8682L31.7942 37.2427" stroke="#00875F" stroke-width="3" stroke-linecap="round" stroke-linejoin="round"/>
<path d="M23.0312 64.8462L22.8852 42.8455" stroke="#00875F" stroke-width="3" stroke-linecap="round" stroke-linejoin="round"/>
<path d="M11.4202 36.8045V42.5248C11.4202 42.9113 11.6428 43.2631 11.9921 43.4286L14.1545 44.4529C14.818 44.7671 15.5826 44.2832 15.5826 43.5491V39.5565C15.5826 39.2079 15.7641 38.8845 16.0617 38.7029L28.508 31.1085" stroke="#00875F" stroke-width="3"/>
<path d="M11.6393 35.9282L26.5364 27.1652" stroke="#00875F" stroke-width="3"/>
<path d="M33.5469 54.7687L39.681 51.2635" stroke="#00875F" stroke-width="3" stroke-linecap="round"/>
<path d="M35.7377 50.2021L38.6852 48.6346" stroke="#00875F" stroke-width="3" stroke-linecap="round"/>
<defs>
<clipPath id="clip0_302_356">
<rect width="35.052" height="35.052" fill="white" transform="translate(25.7249) rotate(18.3214)"/>
</clipPath>
</defs>
</svg>
